<svg width="38" height="36" viewBox="0 0 38 36" fill="none" xmlns="http://www.w3.org/2000/svg">
<path d="M18.6545 36C28.9572 36 37.3091 27.9411 37.3091 18C37.3091 8.05887 28.9572 0 18.6545 0C8.35192 0 0 8.05887 0 18C0 27.9411 8.35192 36 18.6545 36Z" fill="#F2994A"/>
<path d="M19.0602 30.1205C15.5924 30.1205 12.7098 28.9719 10.4127 26.6747C8.13755 24.3775 7 21.506 7 18.0602C7 14.6145 8.13755 11.754 10.4127 9.47892C12.6878 7.15964 15.5703 6 19.0602 6C21.1365 6 23.0582 6.48594 24.8253 7.45783C26.5924 8.40763 27.9839 9.71084 29 11.3675L24.4277 14.0181C23.9197 13.1125 23.1908 12.4167 22.241 11.9307C21.3133 11.4227 20.253 11.1687 19.0602 11.1687C16.9839 11.1687 15.3384 11.7982 14.1235 13.0572C12.9086 14.2942 12.3012 15.9618 12.3012 18.0602C12.3012 20.1586 12.9086 21.8263 14.1235 23.0633C15.3384 24.3223 16.9839 24.9518 19.0602 24.9518C20.2309 24.9518 21.2912 24.6978 22.241 24.1898C23.2129 23.6817 23.9418 22.9859 24.4277 22.1024L29 24.753C28.006 26.4096 26.6255 27.7239 24.8584 28.6958C23.0914 29.6456 21.1586 30.1205 19.0602 30.1205Z" fill="white"/>
</svg>